<svg width="48" height="35" viewBox="0 0 48 35" fill="none" xmlns="http://www.w3.org/2000/svg">
<rect width="48" height="29" fill="#363636"/>
<path d="M19.4785 17.9268V19H14.208V17.9268H19.4785ZM14.4746 9.04688V19H13.1553V9.04688H14.4746ZM18.7812 13.3262V14.3994H14.208V13.3262H18.7812ZM19.4102 9.04688V10.127H14.208V9.04688H19.4102ZM25.4463 17.5645V8.5H26.7178V19H25.5557L25.4463 17.5645ZM20.4697 15.3838V15.2402C20.4697 14.6751 20.5381 14.1624 20.6748 13.7021C20.8161 13.2373 21.0143 12.8385 21.2695 12.5059C21.5293 12.1732 21.8369 11.918 22.1924 11.7402C22.5524 11.5579 22.9535 11.4668 23.3955 11.4668C23.8604 11.4668 24.266 11.5488 24.6123 11.7129C24.9632 11.8724 25.2594 12.1071 25.501 12.417C25.7471 12.7223 25.9408 13.0915 26.082 13.5244C26.2233 13.9574 26.3213 14.4473 26.376 14.9941V15.623C26.3258 16.1654 26.2279 16.653 26.082 17.0859C25.9408 17.5189 25.7471 17.888 25.501 18.1934C25.2594 18.4987 24.9632 18.7334 24.6123 18.8975C24.2614 19.057 23.8512 19.1367 23.3818 19.1367C22.9489 19.1367 22.5524 19.0433 22.1924 18.8564C21.8369 18.6696 21.5293 18.4076 21.2695 18.0703C21.0143 17.7331 20.8161 17.3366 20.6748 16.8809C20.5381 16.4206 20.4697 15.9215 20.4697 15.3838ZM21.7412 15.2402V15.3838C21.7412 15.7529 21.7777 16.0993 21.8506 16.4229C21.9281 16.7464 22.0465 17.0312 22.2061 17.2773C22.3656 17.5234 22.5684 17.7171 22.8145 17.8584C23.0605 17.9951 23.3545 18.0635 23.6963 18.0635C24.1156 18.0635 24.4596 17.9746 24.7285 17.7969C25.002 17.6191 25.2207 17.3844 25.3848 17.0928C25.5488 16.8011 25.6764 16.4844 25.7676 16.1426V14.4951C25.7129 14.2445 25.6331 14.0029 25.5283 13.7705C25.4281 13.5335 25.2959 13.3239 25.1318 13.1416C24.9723 12.9548 24.7741 12.8066 24.5371 12.6973C24.3047 12.5879 24.029 12.5332 23.71 12.5332C23.3636 12.5332 23.0651 12.6061 22.8145 12.752C22.5684 12.8932 22.3656 13.0892 22.2061 13.3398C22.0465 13.5859 21.9281 13.873 21.8506 14.2012C21.7777 14.5247 21.7412 14.8711 21.7412 15.2402ZM30.0605 11.6035V19H28.7891V11.6035H30.0605ZM28.6934 9.6416C28.6934 9.43652 28.7549 9.26335 28.8779 9.12207C29.0055 8.98079 29.1924 8.91016 29.4385 8.91016C29.68 8.91016 29.8646 8.98079 29.9922 9.12207C30.1243 9.26335 30.1904 9.43652 30.1904 9.6416C30.1904 9.83757 30.1243 10.0062 29.9922 10.1475C29.8646 10.2842 29.68 10.3525 29.4385 10.3525C29.1924 10.3525 29.0055 10.2842 28.8779 10.1475C28.7549 10.0062 28.6934 9.83757 28.6934 9.6416ZM35.1875 11.6035V12.5742H31.1885V11.6035H35.1875ZM32.542 9.80566H33.8066V17.168C33.8066 17.4186 33.8454 17.6077 33.9229 17.7354C34.0003 17.863 34.1006 17.9473 34.2236 17.9883C34.3467 18.0293 34.4788 18.0498 34.6201 18.0498C34.7249 18.0498 34.8343 18.0407 34.9482 18.0225C35.0667 17.9997 35.1556 17.9814 35.2148 17.9678L35.2217 19C35.1214 19.0319 34.9893 19.0615 34.8252 19.0889C34.6657 19.1208 34.472 19.1367 34.2441 19.1367C33.9342 19.1367 33.6494 19.0752 33.3896 18.9521C33.1299 18.8291 32.9225 18.624 32.7676 18.3369C32.6172 18.0452 32.542 17.6533 32.542 17.1611V9.80566Z" fill="white"/>
<path d="M18 29H30L24 35L18 29Z" fill="#363636"/>
</svg>
